<?xml version="1.0" encoding="UTF-8"?>
<svg id="Layer_1" xmlns="http://www.w3.org/2000/svg" xmlns:xlink="http://www.w3.org/1999/xlink" version="1.1" viewBox="0 0 54.53 51.62">
  <!-- Generator: Adobe Illustrator 30.0.0, SVG Export Plug-In . SVG Version: 2.1.1 Build 123)  -->
  <defs>
    <style>
      .st0 {
        fill: url(#linear-gradient2);
      }

      .st1 {
        fill: url(#linear-gradient1);
      }

      .st2 {
        fill: url(#linear-gradient3);
      }

      .st3 {
        fill: url(#radial-gradient);
      }

      .st4 {
        fill: url(#linear-gradient);
        opacity: .85;
      }

      .st5 {
        fill: #fff;
      }
    </style>
    <radialGradient id="radial-gradient" cx="13.12" cy="27.18" fx="13.12" fy="27.18" r="30.24" gradientUnits="userSpaceOnUse">
      <stop offset="0" stop-color="#c40047"/>
      <stop offset=".89" stop-color="#ff0070"/>
    </radialGradient>
    <linearGradient id="linear-gradient" x1="6.83" y1="36.19" x2="31.91" y2="39.74" gradientUnits="userSpaceOnUse">
      <stop offset="0" stop-color="#d02685" stop-opacity="0"/>
      <stop offset=".11" stop-color="#ce2581" stop-opacity=".06"/>
      <stop offset=".31" stop-color="#ca2476" stop-opacity=".23"/>
      <stop offset=".58" stop-color="#c32165" stop-opacity=".5"/>
      <stop offset=".89" stop-color="#bb1f4e" stop-opacity=".87"/>
      <stop offset="1" stop-color="#b81e47"/>
    </linearGradient>
    <linearGradient id="linear-gradient1" x1="11.12" y1="17.03" x2="53.47" y2="23.67" gradientUnits="userSpaceOnUse">
      <stop offset="0" stop-color="#d31c5b" stop-opacity="0"/>
      <stop offset=".07" stop-color="#d52d67" stop-opacity=".08"/>
      <stop offset=".21" stop-color="#db5b87" stop-opacity=".29"/>
      <stop offset=".41" stop-color="#e5a5bb" stop-opacity=".63"/>
      <stop offset=".61" stop-color="#f1f5f3"/>
    </linearGradient>
    <linearGradient id="linear-gradient2" x1="11.83" y1="38.59" x2="42.32" y2="22.34" gradientUnits="userSpaceOnUse">
      <stop offset="0" stop-color="#d31c5b" stop-opacity="0"/>
      <stop offset=".05" stop-color="#d31c5b" stop-opacity=".03"/>
      <stop offset=".12" stop-color="#d51f5d" stop-opacity=".1"/>
      <stop offset=".2" stop-color="#d8225f" stop-opacity=".22"/>
      <stop offset=".29" stop-color="#dd2863" stop-opacity=".4"/>
      <stop offset=".38" stop-color="#e22f67" stop-opacity=".61"/>
      <stop offset=".47" stop-color="#e9376d" stop-opacity=".88"/>
      <stop offset=".52" stop-color="#ed3b70"/>
      <stop offset=".62" stop-color="#ed6891"/>
      <stop offset=".74" stop-color="#ed90af"/>
      <stop offset=".84" stop-color="#edadc5"/>
      <stop offset=".93" stop-color="#edbfd2"/>
      <stop offset="1" stop-color="#edc6d7"/>
    </linearGradient>
    <linearGradient id="linear-gradient3" x1="9.58" y1="5.63" x2="21.31" y2="34.57" gradientUnits="userSpaceOnUse">
      <stop offset="0" stop-color="#fff" stop-opacity=".8"/>
      <stop offset=".22" stop-color="#ffe9ff" stop-opacity=".64"/>
      <stop offset=".71" stop-color="#ffb3ff" stop-opacity=".24"/>
      <stop offset=".99" stop-color="#ff93ff" stop-opacity="0"/>
    </linearGradient>
  </defs>
  <g>
    <path class="st3" d="M41.66,25.4c-2.15,1-4.73.98-6.95-.27l-6.1,8.14c.77.89,1.19,2,1.24,3.15.04,1.02-.21,2.06-.81,2.98-1.53,2.38-4.7,3.07-7.08,1.54-.82-.53-1.44-1.25-1.83-2.07-.69-1.43-.71-3.15.07-4.63l-4.94-3.7-1.52,2.04-5.65-4.23,4.23-5.65,5.65,4.23-1.52,2.04,4.99,3.74c1.55-1.3,3.77-1.59,5.63-.65l6.07-8.11c-2.44-2.38-3.07-6.19-1.28-9.27.35-.61.78-1.14,1.26-1.61-3.32-2.25-7.33-3.57-11.65-3.57C9.99,9.5.69,18.8.69,30.27s9.3,20.77,20.77,20.77,20.77-9.3,20.77-20.77c0-1.68-.2-3.31-.58-4.87Z"/>
    <polygon class="st5" points="33.12 13.07 33.12 13.07 33.12 13.07 33.12 13.07"/>
    <polygon class="st5" points="41.66 25.4 41.66 25.4 41.66 25.4 41.66 25.4"/>
    <path class="st4" d="M29.85,36.42c.04,1.02-.21,2.06-.81,2.98-1.53,2.38-4.7,3.07-7.08,1.54-.82-.53-1.44-1.25-1.83-2.07-10.95-.72-18.46-13.34-18.58-8.53-.24,9.45,8.16,19.35,19.64,19.35s19.48-9.66,19.48-19.35c0-3.56-4.19,2.44-10.81,6.08Z"/>
    <path d="M52.13,13.21c-2.68,3.36-7.58,3.9-10.94,1.22-3.35-2.69-3.9-7.58-1.21-10.94,2.69-3.35,7.58-3.9,10.94-1.21,3.36,2.68,3.9,7.58,1.22,10.93Z"/>
    <g>
      <path class="st1" d="M31.86,14.68c.11-.18.23-.34.35-.51-3.66-2.48-8.64-3.81-13.24-3.1-4.95.65-9.56,3.51-12.26,6.65-2.81,3.06-3.9,5.86-3.94,6,17.69-10.87,21.29-.26,28.86,2.25l1.51-2.02c-2.44-2.38-3.07-6.19-1.28-9.27Z"/>
      <path class="st0" d="M33.73,26.44c1.18.12,2.49.03,3.94-.36-1.01-.1-2.02-.41-2.96-.94l-.98,1.3Z"/>
    </g>
    <path class="st2" d="M21.96,40.93c-2.25-1.45-2.99-4.37-1.76-6.7l-4.94-3.7-1.52,2.04-5.65-4.23,4.23-5.65,5.65,4.23-1.52,2.04,4.99,3.74c1.55-1.3,3.77-1.59,5.63-.65l6.07-8.11c-2.44-2.38-3.07-6.19-1.28-9.27.35-.61.78-1.14,1.26-1.61-3.32-2.25-7.33-3.57-11.65-3.57C9.99,9.5.69,18.8.69,30.27s9.3,20.77,20.77,20.77l.5-10.11Z"/>
  </g>
  <g>
    <path class="st3" d="M41.66,25.4c-2.15,1-4.73.98-6.95-.27l-6.1,8.14c.77.89,1.19,2,1.24,3.15.04,1.02-.21,2.06-.81,2.98-1.53,2.38-4.7,3.07-7.08,1.54-.82-.53-1.44-1.25-1.83-2.07-.69-1.43-.71-3.15.07-4.63l-4.94-3.7-1.52,2.04-5.65-4.23,4.23-5.65,5.65,4.23-1.52,2.04,4.99,3.74c1.55-1.3,3.77-1.59,5.63-.65l6.07-8.11c-2.44-2.38-3.07-6.19-1.28-9.27.35-.61.78-1.14,1.26-1.61-3.32-2.25-7.33-3.57-11.65-3.57C9.99,9.5.69,18.8.69,30.27s9.3,20.77,20.77,20.77,20.77-9.3,20.77-20.77c0-1.68-.2-3.31-.58-4.87Z"/>
    <polygon class="st5" points="33.12 13.07 33.12 13.07 33.12 13.07 33.12 13.07"/>
    <polygon class="st5" points="41.66 25.4 41.66 25.4 41.66 25.4 41.66 25.4"/>
    <path class="st4" d="M29.85,36.42c.04,1.02-.21,2.06-.81,2.98-1.53,2.38-4.7,3.07-7.08,1.54-.82-.53-1.44-1.25-1.83-2.07-10.95-.72-18.46-13.34-18.58-8.53-.24,9.45,8.16,19.35,19.64,19.35s19.48-9.66,19.48-19.35c0-3.56-4.19,2.44-10.81,6.08Z"/>
    <path d="M52.13,13.21c-2.68,3.36-7.58,3.9-10.94,1.22-3.35-2.69-3.9-7.58-1.21-10.94,2.69-3.35,7.58-3.9,10.94-1.21,3.36,2.68,3.9,7.58,1.22,10.93Z"/>
    <g>
      <path class="st1" d="M31.86,14.68c.11-.18.23-.34.35-.51-3.66-2.48-8.64-3.81-13.24-3.1-4.95.65-9.56,3.51-12.26,6.65-2.81,3.06-3.9,5.86-3.94,6,17.69-10.87,21.29-.26,28.86,2.25l1.51-2.02c-2.44-2.38-3.07-6.19-1.28-9.27Z"/>
      <path class="st0" d="M33.73,26.44c1.18.12,2.49.03,3.94-.36-1.01-.1-2.02-.41-2.96-.94l-.98,1.3Z"/>
    </g>
    <path class="st2" d="M21.96,40.93c-2.25-1.45-2.99-4.37-1.76-6.7l-4.94-3.7-1.52,2.04-5.65-4.23,4.23-5.65,5.65,4.23-1.52,2.04,4.99,3.74c1.55-1.3,3.77-1.59,5.63-.65l6.07-8.11c-2.44-2.38-3.07-6.19-1.28-9.27.35-.61.78-1.14,1.26-1.61-3.32-2.25-7.33-3.57-11.65-3.57C9.99,9.5.69,18.8.69,30.27s9.3,20.77,20.77,20.77l.5-10.11Z"/>
  </g>
  <g>
    <path class="st3" d="M41.66,25.4c-2.15,1-4.73.98-6.95-.27l-6.1,8.14c.77.89,1.19,2,1.24,3.15.04,1.02-.21,2.06-.81,2.98-1.53,2.38-4.7,3.07-7.08,1.54-.82-.53-1.44-1.25-1.83-2.07-.69-1.43-.71-3.15.07-4.63l-4.94-3.7-1.52,2.04-5.65-4.23,4.23-5.65,5.65,4.23-1.52,2.04,4.99,3.74c1.55-1.3,3.77-1.59,5.63-.65l6.07-8.11c-2.44-2.38-3.07-6.19-1.28-9.27.35-.61.78-1.14,1.26-1.61-3.32-2.25-7.33-3.57-11.65-3.57C9.99,9.5.69,18.8.69,30.27s9.3,20.77,20.77,20.77,20.77-9.3,20.77-20.77c0-1.68-.2-3.31-.58-4.87Z"/>
    <polygon class="st5" points="33.12 13.07 33.12 13.07 33.12 13.07 33.12 13.07"/>
    <polygon class="st5" points="41.66 25.4 41.66 25.4 41.66 25.4 41.66 25.4"/>
    <path class="st4" d="M29.85,36.42c.04,1.02-.21,2.06-.81,2.98-1.53,2.38-4.7,3.07-7.08,1.54-.82-.53-1.44-1.25-1.83-2.07-10.95-.72-18.46-13.34-18.58-8.53-.24,9.45,8.16,19.35,19.64,19.35s19.48-9.66,19.48-19.35c0-3.56-4.19,2.44-10.81,6.08Z"/>
    <path d="M52.13,13.21c-2.68,3.36-7.58,3.9-10.94,1.22-3.35-2.69-3.9-7.58-1.21-10.94,2.69-3.35,7.58-3.9,10.94-1.21,3.36,2.68,3.9,7.58,1.22,10.93Z"/>
    <g>
      <path class="st1" d="M31.86,14.68c.11-.18.23-.34.35-.51-3.66-2.48-8.64-3.81-13.24-3.1-4.95.65-9.56,3.51-12.26,6.65-2.81,3.06-3.9,5.86-3.94,6,17.69-10.87,21.29-.26,28.86,2.25l1.51-2.02c-2.44-2.38-3.07-6.19-1.28-9.27Z"/>
      <path class="st0" d="M33.73,26.44c1.18.12,2.49.03,3.94-.36-1.01-.1-2.02-.41-2.96-.94l-.98,1.3Z"/>
    </g>
    <path class="st2" d="M21.96,40.93c-2.25-1.45-2.99-4.37-1.76-6.7l-4.94-3.7-1.52,2.04-5.65-4.23,4.23-5.65,5.65,4.23-1.52,2.04,4.99,3.74c1.55-1.3,3.77-1.59,5.63-.65l6.07-8.11c-2.44-2.38-3.07-6.19-1.28-9.27.35-.61.78-1.14,1.26-1.61-3.32-2.25-7.33-3.57-11.65-3.57C9.99,9.5.69,18.8.69,30.27s9.3,20.77,20.77,20.77l.5-10.11Z"/>
  </g>
</svg>